0
SECTION
2
HEADER
9
$INSUNITS
70
4
9
$ACADVER
1
AC1014
9
$HANDSEED
5
FFFF
0
ENDSEC
0
SECTION
2
TABLES
0
TABLE
2
VPORT
5
8
100
AcDbSymbolTable
0
ENDTAB
0
TABLE
2
LTYPE
5
5
100
AcDbSymbolTable
0
LTYPE
5
14
100
AcDbSymbolTableRecord
100
AcDbLinetypeTableRecord
2
BYBLOCK
70
0
0
LTYPE
5
15
100
AcDbSymbolTableRecord
100
AcDbLinetypeTableRecord
2
BYLAYER
70
0
0
LTYPE
5
16
100
AcDbSymbolTableRecord
100
AcDbLinetypeTableRecord
2
DASHED
70
0
3
Dashed __ __ __ __ __ __ __ __ __ __ __ __ __ _
72
65
73
2
40
0.75
49
0.5
74
0
49
-0.25
74
0
0
ENDTAB
0
TABLE
2
LAYER
5
2
100
AcDbSymbolTable
70
2
0
LAYER
5
50
100
AcDbSymbolTableRecord
100
AcDbLayerTableRecord
2
0
70
0
62
7
6
CONTINUOUS
0
ENDTAB
0
TABLE
2
STYLE
5
3
100
AcDbSymbolTable
70
1
0
STYLE
5
11
100
AcDbSymbolTableRecord
100
AcDbTextStyleTableRecord
2
STANDARD
70
0
0
ENDTAB
0
TABLE
2
VIEW
5
6
100
AcDbSymbolTable
70
0
0
ENDTAB
0
TABLE
2
UCS
5
7
100
AcDbSymbolTable
70
0
0
ENDTAB
0
TABLE
2
APPID
5
9
100
AcDbSymbolTable
70
2
0
APPID
5
12
100
AcDbSymbolTableRecord
100
AcDbRegAppTableRecord
2
ACAD
70
0
0
ENDTAB
0
TABLE
2
DIMSTYLE
5
A
100
AcDbSymbolTable
70
1
0
ENDTAB
0
TABLE
2
BLOCK_RECORD
5
1
100
AcDbSymbolTable
70
1
0
BLOCK_RECORD
5
1F
100
AcDbSymbolTableRecord
100
AcDbBlockTableRecord
2
*MODEL_SPACE
0
BLOCK_RECORD
5
1B
100
AcDbSymbolTableRecord
100
AcDbBlockTableRecord
2
*PAPER_SPACE
0
ENDTAB
0
ENDSEC
0
SECTION
2
BLOCKS
0
BLOCK
5
20
100
AcDbEntity
100
AcDbBlockBegin
2
*MODEL_SPACE
0
ENDBLK
5
21
100
AcDbEntity
100
AcDbBlockEnd
0
BLOCK
5
1C
100
AcDbEntity
100
AcDbBlockBegin
2
*PAPER_SPACE
0
ENDBLK
5
1D
100
AcDbEntity
100
AcDbBlockEnd
0
ENDSEC
0
SECTION
2
ENTITIES
0
LWPOLYLINE
5
100
100
AcDbEntity
8
0
100
AcDbPolyline
90
16
70
1
43
0.0
10
0
20
0
10
240
20
0
10
390
20
-6.4094948549207209e-30
10
390
20
159.99999999999997
10
240
20
160
10
240
20
0
10
240
20
160
10
0
20
160
10
-150
20
160
10
-150
20
2.1901393695899231e-14
10
0
20
0
10
0
20
160
10
-3.5527136788005009e-14
20
310
10
240
20
310
10
240
20
160
10
2.4651903288156619e-31
20
160
0
LINE
5
101
100
AcDbEntity
8
0
100
AcDbLine
10
240
20
160
30
0
11
240
21
144.62463423744171
31
0
0
LWPOLYLINE
5
102
100
AcDbEntity
8
0
100
AcDbPolyline
90
4
70
1
43
0.0
10
240
20
174.99999999999983
10
255
20
175
10
255
20
160
10
240
20
159.99999999999997
0
LINE
5
103
100
AcDbEntity
8
0
100
AcDbLine
10
255
20
160
30
0
11
206.21695985333821
21
160
31
0
0
LINE
5
104
100
AcDbEntity
8
0
100
AcDbLine
10
255
20
160
30
0
11
270
21
159.9999999999998
31
0
0
LWPOLYLINE
5
105
100
AcDbEntity
8
0
100
AcDbPolyline
90
2
70
1
43
0.0
10
240
20
174.99999999999983
10
240
20
160
0
LINE
5
106
100
AcDbEntity
8
0
100
AcDbLine
10
285
20
160
30
0
11
299.99999999999994
21
159.9999999999998
31
0
0
LINE
5
107
100
AcDbEntity
8
0
100
AcDbLine
10
285
20
175
30
0
11
285
21
160
31
0
0
LINE
5
108
100
AcDbEntity
8
0
100
AcDbLine
10
270
20
174.99999999999983
30
0
11
285
21
175
31
0
0
LINE
5
109
100
AcDbEntity
8
0
100
AcDbLine
10
270
20
174.99999999999983
30
0
11
270
21
160
31
0
0
LINE
5
110
100
AcDbEntity
8
0
100
AcDbLine
10
314.99999999999994
20
160
30
0
11
330
21
159.9999999999998
31
0
0
LINE
5
111
100
AcDbEntity
8
0
100
AcDbLine
10
314.99999999999994
20
175
30
0
11
314.99999999999994
21
160
31
0
0
LINE
5
112
100
AcDbEntity
8
0
100
AcDbLine
10
300
20
174.99999999999983
30
0
11
314.99999999999994
21
175
31
0
0
LINE
5
113
100
AcDbEntity
8
0
100
AcDbLine
10
300
20
174.99999999999983
30
0
11
300
21
160
31
0
0
LINE
5
114
100
AcDbEntity
8
0
100
AcDbLine
10
240
20
174.99999999999983
30
0
11
240.00000000000026
21
189.99999999999986
31
0
0
LINE
5
115
100
AcDbEntity
8
0
100
AcDbLine
10
240
20
159.99999999999997
30
0
11
240
21
174.99999999999994
31
0
0
LINE
5
116
100
AcDbEntity
8
0
100
AcDbLine
10
240
20
159.99999999999997
30
0
11
255
21
159.99999999999997
31
0
0
LINE
5
117
100
AcDbEntity
8
0
100
AcDbLine
10
240
20
310
30
0
11
255
21
310
31
0
0
LINE
5
118
100
AcDbEntity
8
0
100
AcDbLine
10
255
20
310
30
0
11
255
21
295
31
0
0
LINE
5
119
100
AcDbEntity
8
0
100
AcDbLine
10
255
20
295
30
0
11
240
21
295.00000000000006
31
0
0
LINE
5
120
100
AcDbEntity
8
0
100
AcDbLine
10
240
20
295.00000000000006
30
0
11
240
21
280.00000000000006
31
0
0
LINE
5
121
100
AcDbEntity
8
0
100
AcDbLine
10
240
20
280
30
0
11
255
21
280
31
0
0
LINE
5
122
100
AcDbEntity
8
0
100
AcDbLine
10
255
20
280
30
0
11
255
21
265
31
0
0
LINE
5
123
100
AcDbEntity
8
0
100
AcDbLine
10
255
20
265
30
0
11
240
21
265.00000000000006
31
0
0
LINE
5
124
100
AcDbEntity
8
0
100
AcDbLine
10
240
20
265.00000000000006
30
0
11
240
21
250.00000000000006
31
0
0
LINE
5
125
100
AcDbEntity
8
0
100
AcDbLine
10
240
20
250
30
0
11
255
21
250
31
0
0
LINE
5
126
100
AcDbEntity
8
0
100
AcDbLine
10
255
20
250
30
0
11
255
21
235
31
0
0
LINE
5
127
100
AcDbEntity
8
0
100
AcDbLine
10
255
20
235
30
0
11
240
21
235.00000000000006
31
0
0
LINE
5
128
100
AcDbEntity
8
0
100
AcDbLine
10
240
20
235.00000000000006
30
0
11
240
21
220.00000000000006
31
0
0
LWPOLYLINE
5
129
100
AcDbEntity
8
0
100
AcDbPolyline
90
4
70
1
43
0.0
10
0
20
0
10
240
20
0
10
240
20
-150
10
0
20
-150
0
LINE
5
130
100
AcDbEntity
8
0
100
AcDbLine
10
-6.6317322004276009e-14
20
279.99999999999994
30
0
11
-15.000000000000068
21
279.99999999999994
31
0
0
LINE
5
131
100
AcDbEntity
8
0
100
AcDbLine
10
-15.000000000000043
20
249.99999999999994
30
0
11
-15.000000000000037
21
234.99999999999994
31
0
0
LINE
5
132
100
AcDbEntity
8
0
100
AcDbLine
10
-15.000000000000032
20
189.99999999999994
30
0
11
-15.000000000000009
21
174.99999999999994
31
0
0
LINE
5
133
100
AcDbEntity
8
0
100
AcDbLine
10
-15.000000000000073
20
309.99999999999994
30
0
11
-15.000000000000069
21
294.99999999999994
31
0
0
LINE
5
134
100
AcDbEntity
8
0
100
AcDbLine
10
-15.000000000000037
20
234.99999999999994
30
0
11
-3.7895612573872008e-14
21
235
31
0
0
LINE
5
135
100
AcDbEntity
8
0
100
AcDbLine
10
-3.0451831532575702e-14
20
189.99999999999994
30
0
11
-15.000000000000032
21
189.99999999999994
31
0
0
LINE
5
136
100
AcDbEntity
8
0
100
AcDbLine
10
-7.8667231459153922e-14
20
309.99999999999994
30
0
11
-15.000000000000073
21
309.99999999999994
31
0
0
LINE
5
137
100
AcDbEntity
8
0
100
AcDbLine
10
-15.000000000000034
20
204.99999999999994
30
0
11
-3.4258310474147686e-14
21
205
31
0
0
LINE
5
138
100
AcDbEntity
8
0
100
AcDbLine
10
-15.000000000000069
20
294.99999999999994
30
0
11
-6.987003568307651e-14
21
295
31
0
0
LINE
5
139
100
AcDbEntity
8
0
100
AcDbLine
10
-3.8064789415719631e-14
20
219.99999999999994
30
0
11
-15.000000000000037
21
219.99999999999994
31
0
0
LINE
5
140
100
AcDbEntity
8
0
100
AcDbLine
10
-15.000000000000009
20
174.99999999999994
30
0
11
-2.6645352591003757e-14
21
175
31
0
0
LINE
5
141
100
AcDbEntity
8
0
100
AcDbLine
10
-15.000000000000068
20
279.99999999999994
30
0
11
-15.000000000000062
21
264.99999999999994
31
0
0
LINE
5
142
100
AcDbEntity
8
0
100
AcDbLine
10
-15.000000000000037
20
219.99999999999994
30
0
11
-15.000000000000034
21
204.99999999999994
31
0
0
LINE
5
143
100
AcDbEntity
8
0
100
AcDbLine
10
-4.144832625267249e-14
20
249.99999999999994
30
0
11
-15.000000000000043
21
249.99999999999994
31
0
0
LINE
5
144
100
AcDbEntity
8
0
100
AcDbLine
10
-15.000000000000062
20
264.99999999999994
30
0
11
-6.2764608325475508e-14
21
265
31
0
0
LINE
5
145
100
AcDbEntity
8
0
100
AcDbLine
10
-120
20
174.99999999999969
30
0
11
-134.99999999999986
21
174.99999999999986
31
0
0
LINE
5
146
100
AcDbEntity
8
0
100
AcDbLine
10
-5.9211894646674411e-15
20
174.99999999999974
30
0
11
-15.000000000000007
21
174.99999999999994
31
0
0
LINE
5
147
100
AcDbEntity
8
0
100
AcDbLine
10
-90
20
174.99999999999972
30
0
11
-90
21
159.99999999999991
31
0
0
LINE
5
148
100
AcDbEntity
8
0
100
AcDbLine
10
-30.000000000000004
20
174.99999999999974
30
0
11
-30.000000000000004
21
159.99999999999994
31
0
0
LINE
5
149
100
AcDbEntity
8
0
100
AcDbLine
10
-74.999999999999972
20
174.99999999999989
30
0
11
-74.999999999999972
21
159.99999999999991
31
0
0
LINE
5
150
100
AcDbEntity
8
0
100
AcDbLine
10
-120
20
174.99999999999969
30
0
11
-120
21
159.99999999999989
31
0
0
LINE
5
151
100
AcDbEntity
8
0
100
AcDbLine
10
-104.99999999999986
20
174.99999999999989
30
0
11
-104.99999999999986
21
159.99999999999989
31
0
0
LINE
5
152
100
AcDbEntity
8
0
100
AcDbLine
10
-30.000000000000004
20
174.99999999999974
30
0
11
-45
21
174.99999999999994
31
0
0
LINE
5
153
100
AcDbEntity
8
0
100
AcDbLine
10
-60
20
174.99999999999972
30
0
11
-74.999999999999972
21
174.99999999999989
31
0
0
LINE
5
154
100
AcDbEntity
8
0
100
AcDbLine
10
-134.99999999999986
20
174.99999999999986
30
0
11
-134.99999999999986
21
159.99999999999986
31
0
0
LINE
5
155
100
AcDbEntity
8
0
100
AcDbLine
10
-45
20
174.99999999999994
30
0
11
-45
21
159.99999999999994
31
0
0
LINE
5
156
100
AcDbEntity
8
0
100
AcDbLine
10
-90
20
174.99999999999972
30
0
11
-104.99999999999986
21
174.99999999999989
31
0
0
LINE
5
157
100
AcDbEntity
8
0
100
AcDbLine
10
-60
20
174.99999999999972
30
0
11
-60
21
159.99999999999994
31
0
0
LINE
5
158
100
AcDbEntity
8
0
100
AcDbLine
10
-15.000000000000007
20
174.99999999999994
30
0
11
-15.000000000000002
21
159.99999999999994
31
0
0
LINE
5
159
100
AcDbEntity
8
0
100
AcDbLine
10
255
20
-15
30
0
11
240
21
-15.000000000000071
31
0
0
LINE
5
160
100
AcDbEntity
8
0
100
AcDbLine
10
360
20
-14.999999999999831
30
0
11
374.99999999999989
21
-15.000000000000027
31
0
0
LINE
5
161
100
AcDbEntity
8
0
100
AcDbLine
10
330
20
-14.999999999999829
30
0
11
344.99999999999989
21
-15.000000000000009
31
0
0
LINE
5
162
100
AcDbEntity
8
0
100
AcDbLine
10
255
20
-30
30
0
11
255
21
-15
31
0
0
LINE
5
163
100
AcDbEntity
8
0
100
AcDbLine
10
255
20
-150
30
0
11
255
21
-135
31
0
0
LINE
5
164
100
AcDbEntity
8
0
100
AcDbLine
10
255
20
-90
30
0
11
255
21
-75
31
0
0
LINE
5
165
100
AcDbEntity
8
0
100
AcDbLine
10
255
20
-120
30
0
11
255
21
-105
31
0
0
LINE
5
166
100
AcDbEntity
8
0
100
AcDbLine
10
255
20
-60
30
0
11
255
21
-45
31
0
0
LINE
5
167
100
AcDbEntity
8
0
100
AcDbLine
10
300
20
-14.999999999999822
30
0
11
314.99999999999994
21
-15
31
0
0
LINE
5
168
100
AcDbEntity
8
0
100
AcDbLine
10
270
20
-14.999999999999822
30
0
11
285
21
-15
31
0
0
LINE
5
169
100
AcDbEntity
8
0
100
AcDbLine
10
344.99999999999989
20
-15.000000000000009
30
0
11
344.99999999999989
21
-7.7715611723760832e-15
31
0
0
LINE
5
170
100
AcDbEntity
8
0
100
AcDbLine
10
255
20
-15
30
0
11
255
21
0
31
0
0
LINE
5
171
100
AcDbEntity
8
0
100
AcDbLine
10
314.99999999999994
20
-15
30
0
11
314.99999999999994
21
0
31
0
0
LINE
5
172
100
AcDbEntity
8
0
100
AcDbLine
10
330
20
-14.999999999999829
30
0
11
330
21
0
31
0
0
LINE
5
173
100
AcDbEntity
8
0
100
AcDbLine
10
374.99999999999989
20
-15.000000000000027
30
0
11
374.99999999999989
21
-2.7755575615628898e-14
31
0
0
LINE
5
174
100
AcDbEntity
8
0
100
AcDbLine
10
240
20
-90
30
0
11
255
21
-90
31
0
0
LINE
5
175
100
AcDbEntity
8
0
100
AcDbLine
10
255
20
-75
30
0
11
240
21
-75.000000000000071
31
0
0
LINE
5
176
100
AcDbEntity
8
0
100
AcDbLine
10
240
20
-14.999999999999822
30
0
11
255
21
-15
31
0
0
LINE
5
177
100
AcDbEntity
8
0
100
AcDbLine
10
240
20
-60
30
0
11
255
21
-60
31
0
0
LINE
5
178
100
AcDbEntity
8
0
100
AcDbLine
10
285
20
-15
30
0
11
285
21
0
31
0
0
LINE
5
179
100
AcDbEntity
8
0
100
AcDbLine
10
240
20
-120
30
0
11
255
21
-120
31
0
0
LINE
5
180
100
AcDbEntity
8
0
100
AcDbLine
10
255
20
-105
30
0
11
240
21
-105.00000000000007
31
0
0
LINE
5
181
100
AcDbEntity
8
0
100
AcDbLine
10
255
20
-45
30
0
11
240
21
-45.000000000000071
31
0
0
LINE
5
182
100
AcDbEntity
8
0
100
AcDbLine
10
360
20
-14.999999999999831
30
0
11
360
21
0
31
0
0
LINE
5
183
100
AcDbEntity
8
0
100
AcDbLine
10
240
20
-150
30
0
11
255
21
-150
31
0
0
LINE
5
184
100
AcDbEntity
8
0
100
AcDbLine
10
300
20
-14.999999999999822
30
0
11
300
21
-2.5637979419682891e-30
31
0
0
LINE
5
185
100
AcDbEntity
8
0
100
AcDbLine
10
255
20
-135
30
0
11
240
21
-135.00000000000006
31
0
0
LINE
5
186
100
AcDbEntity
8
0
100
AcDbLine
10
270
20
-14.999999999999822
30
0
11
270
21
0
31
0
0
LINE
5
187
100
AcDbEntity
8
0
100
AcDbLine
10
240
20
-30
30
0
11
255
21
-30
31
0
0
LINE
5
188
100
AcDbEntity
8
0
100
AcDbLine
10
7.8667231459153973e-14
20
-30.000000000000064
30
0
11
-14.999999999999922
21
-30.000000000000068
31
0
0
LINE
5
189
100
AcDbEntity
8
0
100
AcDbLine
10
-14.999999999999895
20
-60.000000000000071
30
0
11
-14.999999999999901
21
-45.000000000000071
31
0
0
LINE
5
190
100
AcDbEntity
8
0
100
AcDbLine
10
-89.999999999999929
20
-14.999999999999932
30
0
11
-104.99999999999979
21
-15.000000000000124
31
0
0
LINE
5
191
100
AcDbEntity
8
0
100
AcDbLine
10
1.4464619977973471e-13
20
-150.00000000000006
30
0
11
-14.999999999999858
21
-150.00000000000006
31
0
0
LINE
5
192
100
AcDbEntity
8
0
100
AcDbLine
10
-14.99999999999989
20
-90.000000000000071
30
0
11
-14.999999999999893
21
-75.000000000000071
31
0
0
LINE
5
193
100
AcDbEntity
8
0
100
AcDbLine
10
-104.99999999999979
20
-15.000000000000124
30
0
11
-104.99999999999979
21
-1.2196592941953494e-13
31
0
0
LINE
5
194
100
AcDbEntity
8
0
100
AcDbLine
10
1.1013412404281555e-13
20
-90.000000000000057
30
0
11
-14.99999999999989
21
-90.000000000000071
31
0
0
LINE
5
195
100
AcDbEntity
8
0
100
AcDbLine
10
1.3500311979441904e-13
20
-120.00000000000006
30
0
11
-14.999999999999865
21
-120.00000000000006
31
0
0
LINE
5
196
100
AcDbEntity
8
0
100
AcDbLine
10
-29.999999999999925
20
-14.999999999999892
30
0
11
-29.999999999999929
21
-7.1054273576010006e-14
31
0
0
LINE
5
197
100
AcDbEntity
8
0
100
AcDbLine
10
-89.999999999999929
20
-14.999999999999932
30
0
11
-89.999999999999929
21
-9.9920072216264089e-14
31
0
0
LINE
5
198
100
AcDbEntity
8
0
100
AcDbLine
10
-119.99999999999993
20
-14.999999999999954
30
0
11
-134.99999999999977
21
-15.000000000000156
31
0
0
LINE
5
199
100
AcDbEntity
8
0
100
AcDbLine
10
-44.999999999999929
20
-15.000000000000078
30
0
11
-44.999999999999929
21
-7.8159700933610995e-14
31
0
0
LINE
5
200
100
AcDbEntity
8
0
100
AcDbLine
10
-119.99999999999993
20
-14.999999999999954
30
0
11
-119.99999999999993
21
-1.1324274851176597e-13
31
0
0
LINE
5
201
100
AcDbEntity
8
0
100
AcDbLine
10
-59.999999999999929
20
-14.999999999999908
30
0
11
-74.999999999999886
21
-15.000000000000092
31
0
0
LINE
5
202
100
AcDbEntity
8
0
100
AcDbLine
10
-14.999999999999922
20
-30.000000000000068
30
0
11
-14.999999999999925
21
-15.000000000000069
31
0
0
LINE
5
203
100
AcDbEntity
8
0
100
AcDbLine
10
-14.999999999999865
20
-120.00000000000006
30
0
11
-14.999999999999886
21
-105.00000000000007
31
0
0
LINE
5
204
100
AcDbEntity
8
0
100
AcDbLine
10
-14.999999999999925
20
-15.000000000000068
30
0
11
-14.999999999999929
21
-6.3948846218408991e-14
31
0
0
LINE
5
205
100
AcDbEntity
8
0
100
AcDbLine
10
-59.999999999999929
20
-14.999999999999908
30
0
11
-59.999999999999929
21
-9.4739031434680004e-14
31
0
0
LINE
5
206
100
AcDbEntity
8
0
100
AcDbLine
10
1.0404375773630039e-13
20
-60.000000000000064
30
0
11
-14.999999999999895
21
-60.000000000000071
31
0
0
LINE
5
207
100
AcDbEntity
8
0
100
AcDbLine
10
-134.99999999999977
20
-15.000000000000156
30
0
11
-134.99999999999977
21
-1.5717585962907561e-13
31
0
0
LINE
5
208
100
AcDbEntity
8
0
100
AcDbLine
10
-14.999999999999861
20
-135.00000000000006
30
0
11
1.3855583347321956e-13
21
-135.00000000000011
31
0
0
LINE
5
209
100
AcDbEntity
8
0
100
AcDbLine
10
-14.999999999999893
20
-75.000000000000071
30
0
11
1.0658141036401505e-13
21
-75.000000000000128
31
0
0
LINE
5
210
100
AcDbEntity
8
0
100
AcDbLine
10
-14.999999999999886
20
-105.00000000000007
30
0
11
1.1368683772161608e-13
21
-105.00000000000013
31
0
0
LINE
5
211
100
AcDbEntity
8
0
100
AcDbLine
10
-14.999999999999925
20
-15.000000000000069
30
0
11
7.4860752517582015e-14
21
-15.000000000000133
31
0
0
LINE
5
212
100
AcDbEntity
8
0
100
AcDbLine
10
-14.999999999999901
20
-45.000000000000071
30
0
11
1.0023727879472846e-13
21
-45.000000000000135
31
0
0
LINE
5
213
100
AcDbEntity
8
0
100
AcDbLine
10
-74.999999999999886
20
-15.000000000000092
30
0
11
-74.999999999999886
21
-9.2370555648812974e-14
31
0
0
LINE
5
214
100
AcDbEntity
8
0
100
AcDbLine
10
7.4606987254810494e-14
20
-14.999999999999879
30
0
11
-14.999999999999925
21
-15.000000000000068
31
0
0
LINE
5
215
100
AcDbEntity
8
0
100
AcDbLine
10
-29.999999999999925
20
-14.999999999999892
30
0
11
-44.999999999999929
21
-15.000000000000078
31
0
0
LINE
5
216
100
AcDbEntity
8
0
100
AcDbLine
10
-14.999999999999858
20
-150.00000000000006
30
0
11
-14.999999999999861
21
-135.00000000000006
31
0
0
CIRCLE
5
217
100
AcDbEntity
8
0
100
AcDbCircle
10
340
20
45
30
0
40
25.000000000000028
210
0
220
0
230
1
0
CIRCLE
5
218
100
AcDbEntity
8
0
100
AcDbCircle
10
340
20
114.99999999999993
30
0
40
25.000000000000014
210
0
220
0
230
1
0
LWPOLYLINE
5
219
100
AcDbEntity
8
0
100
AcDbPolyline
90
3
70
1
43
0.0
10
310
20
80
10
288.349364905389
20
67.5
10
288.34936490538905
20
92.5
0
LWPOLYLINE
5
220
100
AcDbEntity
8
0
100
AcDbPolyline
90
4
70
1
43
0.0
10
277.16647319133705
20
29.999999999999964
10
252.16647319133705
20
29.999999999999964
10
252.16647319133705
20
129.99999999999997
10
277.16647319133705
20
129.99999999999997
0
LINE
5
221
100
AcDbEntity
8
0
100
AcDbLine
10
277.16647319133705
20
49.999999999999929
30
0
11
252.16647319133705
21
49.999999999999929
31
0
0
LINE
5
222
100
AcDbEntity
8
0
100
AcDbLine
10
277.16647319133705
20
69.999999999999929
30
0
11
252.16647319133705
21
69.999999999999929
31
0
0
LINE
5
223
100
AcDbEntity
8
0
100
AcDbLine
10
277.16647319133705
20
89.999999999999929
30
0
11
252.16647319133705
21
89.999999999999929
31
0
0
LINE
5
224
100
AcDbEntity
8
0
100
AcDbLine
10
277.16647319133705
20
109.99999999999993
30
0
11
252.16647319133705
21
109.99999999999993
31
0
0
CIRCLE
5
225
100
AcDbEntity
8
0
100
AcDbCircle
10
340
20
45
30
0
40
20.000000000000004
210
0
220
0
230
1
0
CIRCLE
5
226
100
AcDbEntity
8
0
100
AcDbCircle
10
340
20
114.99999999999993
30
0
40
20.000000000000032
210
0
220
0
230
1
0
LINE
5
227
100
AcDbEntity
8
0
100
AcDbLine
10
460
20
80
30
0
11
460
21
75
31
0
0
LINE
5
228
100
AcDbEntity
8
0
100
AcDbLine
10
460
20
75
30
0
11
390
21
74.999999999999986
31
0
0
LINE
5
229
100
AcDbEntity
8
0
100
AcDbLine
10
460
20
80
30
0
11
460
21
85
31
0
0
LINE
5
230
100
AcDbEntity
8
0
100
AcDbLine
10
460
20
85
30
0
11
390
21
85.000000000000014
31
0
0
CIRCLE
5
231
100
AcDbEntity
8
0
100
AcDbCircle
10
460
20
80
30
0
40
15.000000000000009
210
0
220
0
230
1
0
LINE
5
232
100
AcDbEntity
8
0
100
AcDbLine
10
345
20
160
30
0
11
360
21
159.9999999999998
31
0
0
LINE
5
233
100
AcDbEntity
8
0
100
AcDbLine
10
345
20
175
30
0
11
345
21
160
31
0
0
LINE
5
234
100
AcDbEntity
8
0
100
AcDbLine
10
330
20
174.99999999999983
30
0
11
345
21
175
31
0
0
LINE
5
235
100
AcDbEntity
8
0
100
AcDbLine
10
330
20
174.99999999999983
30
0
11
330
21
160
31
0
0
LINE
5
236
100
AcDbEntity
8
0
100
AcDbLine
10
375
20
160
30
0
11
390
21
159.9999999999998
31
0
0
LINE
5
237
100
AcDbEntity
8
0
100
AcDbLine
10
375
20
175
30
0
11
375
21
160
31
0
0
LINE
5
238
100
AcDbEntity
8
0
100
AcDbLine
10
360
20
174.99999999999983
30
0
11
375
21
175
31
0
0
LINE
5
239
100
AcDbEntity
8
0
100
AcDbLine
10
360
20
174.99999999999983
30
0
11
360
21
160
31
0
0
LINE
5
240
100
AcDbEntity
8
0
100
AcDbLine
10
240
20
220
30
0
11
255
21
220
31
0
0
LINE
5
241
100
AcDbEntity
8
0
100
AcDbLine
10
255
20
220
30
0
11
255
21
205
31
0
0
LINE
5
242
100
AcDbEntity
8
0
100
AcDbLine
10
255
20
205
30
0
11
240
21
205.00000000000006
31
0
0
LINE
5
243
100
AcDbEntity
8
0
100
AcDbLine
10
240
20
205.00000000000006
30
0
11
240
21
190.00000000000006
31
0
0
LINE
5
244
100
AcDbEntity
8
0
100
AcDbLine
10
240
20
190
30
0
11
255
21
190
31
0
0
LINE
5
245
100
AcDbEntity
8
0
100
AcDbLine
10
255
20
190
30
0
11
255
21
175
31
0
0
LINE
5
246
100
AcDbEntity
8
0
100
AcDbLine
10
255
20
175
30
0
11
240
21
175.00000000000006
31
0
0
LINE
5
247
100
AcDbEntity
8
0
100
AcDbLine
10
240
20
175.00000000000006
30
0
11
240
21
160.00000000000006
31
0
0
ENDSEC
0
SECTION
2
OBJECTS
0
DICTIONARY
5
C
100
AcDbDictionary
3
ACAD_GROUP
350
D
3
ACAD_MLINESTYLE
350
17
0
DICTIONARY
5
D
100
AcDbDictionary
0
DICTIONARY
5
1A
330
C
100
AcDbDictionary
0
DICTIONARY
5
17
100
AcDbDictionary
0
ENDSEC
0
EOF
